<?xml version="1.0" encoding="UTF-8" standalone="no"?>
<!-- Created with Inkscape (http://www.inkscape.org/) -->

<svg
   xmlns:dc="http://purl.org/dc/elements/1.1/"
   xmlns:cc="http://creativecommons.org/ns#"
   xmlns:rdf="http://www.w3.org/1999/02/22-rdf-syntax-ns#"
   xmlns:svg="http://www.w3.org/2000/svg"
   xmlns="http://www.w3.org/2000/svg"
   xmlns:sodipodi="http://sodipodi.sourceforge.net/DTD/sodipodi-0.dtd"
   xmlns:inkscape="http://www.inkscape.org/namespaces/inkscape"
   version="1.1"
   id="svg2"
   width="300"
   height="87.591232"
   viewBox="0 0 300 87.591232"
   sodipodi:docname="lambda_logo_light_small.svg"
   inkscape:version="0.92.1 r15371"
   inkscape:export-filename="/home/tank/git/Tabs-Components/lambda_logo_f3_light_300.png"
   inkscape:export-xdpi="300.00601"
   inkscape:export-ydpi="300.00601">
  <metadata
     id="metadata8">
    <rdf:RDF>
      <cc:Work
         rdf:about="">
        <dc:format>image/svg+xml</dc:format>
        <dc:type
           rdf:resource="http://purl.org/dc/dcmitype/StillImage" />
        <dc:title></dc:title>
      </cc:Work>
    </rdf:RDF>
  </metadata>
  <defs
     id="defs6" />
  <sodipodi:namedview
     pagecolor="#ffffff"
     bordercolor="#666666"
     borderopacity="1"
     objecttolerance="10"
     gridtolerance="10"
     guidetolerance="10"
     inkscape:pageopacity="0"
     inkscape:pageshadow="2"
     inkscape:window-width="1920"
     inkscape:window-height="1020"
     id="namedview4"
     showgrid="false"
     inkscape:pagecheckerboard="true"
     fit-margin-top="0"
     fit-margin-left="0"
     fit-margin-right="0"
     fit-margin-bottom="0"
     inkscape:showpageshadow="false"
     inkscape:zoom="1.548409"
     inkscape:cx="155.72168"
     inkscape:cy="-41.075361"
     inkscape:window-x="0"
     inkscape:window-y="23"
     inkscape:window-maximized="1"
     inkscape:current-layer="svg2" />
  <path
     style="fill:#fafbfb;fill-opacity:1;stroke:none;stroke-width:0.18519685;stroke-miterlimit:4;stroke-dasharray:none;stroke-opacity:1"
     d="M 0 0 L 0 59.09375 L 41.009766 87.509766 L 81.373047 59.09375 L 81.373047 0 L 0 0 z M 10.660156 10.65625 L 70.714844 10.65625 L 70.714844 54.267578 L 40.925781 75.238281 L 10.660156 54.267578 L 10.660156 10.65625 z M 36.183594 17.066406 L 16.138672 50.373047 L 27.310547 50.373047 L 40.685547 27.964844 L 54.060547 50.373047 L 65.232422 50.373047 L 45.1875 17.066406 L 40.695312 17.066406 L 40.677734 17.066406 L 36.183594 17.066406 z "
     id="path4513" />
  <g
     id="g4552">
    <path
       d="m 138.04864,50.10302 c -0.0493,0.04932 -3.79728,3.452067 -9.56716,3.452067 -3.8959,0 -6.65756,-1.282196 -9.86305,-2.761653 -3.74796,-1.775349 -7.89044,-3.649328 -14.2521,-3.649328 V 20.66182 h -5.424679 v 32.44943 c 2.021929,-0.345207 3.797269,-0.542468 5.424679,-0.542468 5.1781,0 8.48222,1.528773 11.9836,3.156176 3.45207,1.578088 7.05208,3.254806 12.13155,3.254806 7.98907,0 13.06854,-4.734263 13.31512,-4.931524 z m -4.48769,-3.20549 h 5.72057 L 130.1582,20.66182 h -5.72057 l -9.12332,26.23571 h 5.76988 l 6.21373,-17.950749 z"
       style="font-style:normal;font-variant:normal;font-weight:normal;font-stretch:normal;font-size:49.31524277px;line-height:1.25;font-family:'Autorich Sans';-inkscape-font-specification:'Autorich Sans, Normal';font-variant-ligatures:normal;font-variant-caps:normal;font-variant-numeric:normal;font-feature-settings:normal;text-align:start;letter-spacing:0px;word-spacing:0px;writing-mode:lr-tb;text-anchor:start;fill:#fafbfb;fill-opacity:1;stroke:none;stroke-width:1.23288107"
       id="path4531"
       inkscape:connector-curvature="0" />
    <path
       d="m 172.32196,20.66182 -8.87674,20.564457 -8.87674,-20.564457 h -8.33428 v 32.054908 h 5.42468 V 27.61527 l 9.32058,21.501445 h 4.93152 l 9.32058,-21.501445 v 25.101458 h 5.42468 V 20.66182 Z"
       style="font-style:normal;font-variant:normal;font-weight:normal;font-stretch:normal;font-size:49.31524277px;line-height:1.25;font-family:'Autorich Sans';-inkscape-font-specification:'Autorich Sans, Normal';font-variant-ligatures:normal;font-variant-caps:normal;font-variant-numeric:normal;font-feature-settings:normal;text-align:start;letter-spacing:0px;word-spacing:0px;writing-mode:lr-tb;text-anchor:start;fill:#fafbfb;fill-opacity:1;stroke:none;stroke-width:1.23288107"
       id="path4533"
       inkscape:connector-curvature="0" />
    <path
       d="m 206.35873,52.716728 c 5.1781,0 9.3699,-4.191795 9.3699,-9.369896 0,-2.860284 -1.33152,-5.473992 -3.40276,-7.200025 1.43015,-1.627403 2.31782,-3.747959 2.31782,-6.11509 0,-5.178101 -4.1918,-9.369897 -9.3699,-9.369897 h -16.27403 v 32.054908 z m -11.93429,-5.424676 v -7.890439 h 11.93429 c 2.16987,0 3.94522,1.775348 3.94522,3.945219 0,2.169871 -1.77535,3.94522 -3.94522,3.94522 z m 0,-13.315116 v -7.890439 h 10.84935 c 2.16987,0 3.94522,1.775349 3.94522,3.94522 0,2.16987 -1.77535,3.945219 -3.94522,3.945219 z"
       style="font-style:normal;font-variant:normal;font-weight:normal;font-stretch:normal;font-size:49.31524277px;line-height:1.25;font-family:'Autorich Sans';-inkscape-font-specification:'Autorich Sans, Normal';font-variant-ligatures:normal;font-variant-caps:normal;font-variant-numeric:normal;font-feature-settings:normal;text-align:start;letter-spacing:0px;word-spacing:0px;writing-mode:lr-tb;text-anchor:start;fill:#fafbfb;fill-opacity:1;stroke:none;stroke-width:1.23288107"
       id="path4535"
       inkscape:connector-curvature="0" />
    <path
       d="m 237.64925,20.66182 c -9.07401,0 -16.47129,7.200026 -16.47129,16.027454 0,8.827429 7.39728,16.027454 16.47129,16.027454 h 12.2795 V 20.66182 Z m 6.85482,5.424677 v 21.205555 h -6.85482 c -6.11509,0 -11.04661,-4.734264 -11.04661,-10.602778 0,-5.819198 4.93152,-10.602777 11.04661,-10.602777 z"
       style="font-style:normal;font-variant:normal;font-weight:normal;font-stretch:normal;font-size:49.31524277px;line-height:1.25;font-family:'Autorich Sans';-inkscape-font-specification:'Autorich Sans, Normal';font-variant-ligatures:normal;font-variant-caps:normal;font-variant-numeric:normal;font-feature-settings:normal;text-align:start;letter-spacing:0px;word-spacing:0px;writing-mode:lr-tb;text-anchor:start;fill:#fafbfb;fill-opacity:1;stroke:none;stroke-width:1.23288107"
       id="path4537"
       inkscape:connector-curvature="0" />
    <path
       d="m 282.36584,52.716728 h 5.91783 L 274.37677,20.66182 H 268.311 l -13.9069,32.054908 h 5.91783 l 11.04661,-25.39735 z"
       style="font-style:normal;font-variant:normal;font-weight:normal;font-stretch:normal;font-size:49.31524277px;line-height:1.25;font-family:'Autorich Sans';-inkscape-font-specification:'Autorich Sans, Normal';font-variant-ligatures:normal;font-variant-caps:normal;font-variant-numeric:normal;font-feature-settings:normal;text-align:start;letter-spacing:0px;word-spacing:0px;writing-mode:lr-tb;text-anchor:start;fill:#fafbfb;fill-opacity:1;stroke:none;stroke-width:1.23288107"
       id="path4539"
       inkscape:connector-curvature="0" />
  </g>
</svg>
